<svg height='300px' width='300px'  fill="#fff" xmlns="http://www.w3.org/2000/svg" xmlns:xlink="http://www.w3.org/1999/xlink" version="1.1" x="0px" y="0px" viewBox="0 0 60 60" enable-background="new 0 0 60 60" xml:space="preserve"><path d="M60,30C60,13.46,46.54,0,30,0S0,13.46,0,30c0,6.14,1.86,11.86,5.04,16.62l0,0.02l0.21,0.3c0.18,0.26,0.37,0.51,0.56,0.77  c0.08,0.1,0.15,0.21,0.23,0.31c0.24,0.32,0.48,0.63,0.73,0.93c0.07,0.09,0.14,0.18,0.22,0.26c1.16,1.39,2.43,2.65,3.79,3.79  c0.08,0.07,0.17,0.14,0.25,0.21c0.3,0.24,0.6,0.48,0.91,0.71c0.12,0.09,0.25,0.19,0.38,0.28c0.29,0.21,0.58,0.43,0.88,0.63  c0.16,0.11,0.33,0.21,0.49,0.32c0.42,0.27,0.84,0.53,1.26,0.78c0.3,0.17,0.6,0.35,0.9,0.51c0.18,0.1,0.37,0.19,0.56,0.29  c0.32,0.17,0.65,0.33,0.98,0.48c0.17,0.08,0.33,0.15,0.5,0.23c0.38,0.17,0.77,0.33,1.16,0.49c0.12,0.05,0.24,0.1,0.36,0.14  c1.07,0.41,2.17,0.75,3.3,1.04c0.05,0.01,0.09,0.02,0.14,0.03c0.5,0.12,1,0.23,1.51,0.33c0.13,0.03,0.27,0.05,0.4,0.07  c0.42,0.07,0.85,0.14,1.28,0.2c0.16,0.02,0.33,0.04,0.49,0.06c0.42,0.05,0.84,0.09,1.27,0.12c0.16,0.01,0.31,0.03,0.47,0.04  C28.85,59.98,29.42,60,30,60s1.15-0.02,1.72-0.05c0.16-0.01,0.31-0.02,0.47-0.04c0.42-0.03,0.85-0.07,1.27-0.12  c0.16-0.02,0.33-0.04,0.49-0.06c0.43-0.06,0.86-0.12,1.28-0.2c0.14-0.02,0.27-0.05,0.4-0.07c0.51-0.1,1.01-0.21,1.51-0.33  c0.05-0.01,0.09-0.02,0.14-0.03c1.13-0.28,2.23-0.63,3.3-1.04c0.12-0.05,0.24-0.1,0.36-0.14c0.39-0.15,0.78-0.31,1.16-0.48  c0.17-0.07,0.34-0.15,0.5-0.23c0.33-0.15,0.66-0.32,0.98-0.48c0.19-0.09,0.37-0.19,0.56-0.29c0.3-0.16,0.6-0.34,0.9-0.51  c0.43-0.25,0.85-0.51,1.26-0.78c0.16-0.11,0.33-0.21,0.49-0.32c0.3-0.2,0.59-0.42,0.88-0.63c0.13-0.09,0.25-0.18,0.38-0.28  c0.31-0.23,0.61-0.47,0.91-0.71c0.08-0.07,0.17-0.14,0.25-0.21c1.37-1.14,2.64-2.41,3.79-3.8c0.07-0.09,0.14-0.17,0.22-0.26  c0.25-0.31,0.49-0.61,0.73-0.93c0.08-0.1,0.15-0.21,0.23-0.31c0.19-0.26,0.38-0.51,0.56-0.77l0.21-0.3l0-0.02  C58.14,41.86,60,36.14,60,30z M58,30c0,4.97-1.31,9.64-3.59,13.69C52.7,38.02,47.46,34,41.31,34h-0.9h-5.05  c-0.2,0-0.37-0.16-0.37-0.37v-0.64c0-0.18,0.15-0.3,0.28-0.35c6.44-2.42,10.46-12.46,9.61-19.49c-0.44-3.66-2.25-6.93-4.88-9.29  C50.52,7.89,58,18.09,58,30z M52.54,46.59c-0.08,0.11-0.16,0.22-0.24,0.33c-0.22,0.29-0.45,0.58-0.68,0.87  c-0.02,0.03-0.05,0.06-0.07,0.09c-0.81,0.97-1.68,1.89-2.61,2.74c-0.06,0.05-0.11,0.1-0.17,0.15c-0.28,0.25-0.56,0.49-0.85,0.73  c-0.09,0.08-0.18,0.15-0.27,0.22c-0.28,0.23-0.56,0.45-0.85,0.67c-0.1,0.07-0.2,0.14-0.29,0.21c-0.16,0.12-0.33,0.24-0.5,0.36V48h-2  v6.23c-0.04,0.02-0.08,0.05-0.12,0.07c-0.25,0.15-0.51,0.29-0.77,0.43c-0.18,0.09-0.36,0.18-0.54,0.28c-0.3,0.15-0.61,0.3-0.91,0.44  c-0.15,0.07-0.3,0.14-0.45,0.2c-0.38,0.17-0.77,0.33-1.17,0.48c-0.08,0.03-0.16,0.06-0.24,0.09c-1,0.37-2.02,0.69-3.06,0.95  c-0.07,0.02-0.15,0.03-0.23,0.05c-0.43,0.1-0.87,0.2-1.3,0.28c-0.13,0.02-0.26,0.05-0.39,0.07c-0.39,0.07-0.78,0.13-1.17,0.18  c-0.15,0.02-0.3,0.04-0.45,0.06c-0.39,0.04-0.78,0.08-1.17,0.11c-0.15,0.01-0.29,0.02-0.43,0.03C31.07,57.98,30.53,58,30,58  s-1.07-0.02-1.59-0.05c-0.15-0.01-0.29-0.02-0.43-0.03c-0.39-0.03-0.78-0.06-1.17-0.11c-0.15-0.02-0.3-0.04-0.45-0.06  c-0.39-0.05-0.78-0.11-1.17-0.18c-0.13-0.02-0.26-0.05-0.39-0.07c-0.44-0.08-0.87-0.18-1.3-0.28c-0.07-0.02-0.15-0.03-0.22-0.05  c-1.04-0.26-2.06-0.58-3.06-0.95c-0.08-0.03-0.16-0.06-0.24-0.1c-0.39-0.15-0.78-0.31-1.16-0.48c-0.15-0.07-0.3-0.14-0.45-0.2  c-0.31-0.14-0.61-0.29-0.91-0.44c-0.18-0.09-0.36-0.18-0.54-0.28c-0.26-0.14-0.51-0.28-0.77-0.43c-0.04-0.02-0.08-0.05-0.12-0.07V48  h-2v4.96c-0.17-0.12-0.33-0.23-0.5-0.36c-0.1-0.07-0.2-0.14-0.29-0.21c-0.29-0.22-0.57-0.44-0.85-0.67  c-0.09-0.07-0.18-0.15-0.27-0.22c-0.29-0.24-0.57-0.48-0.85-0.73c-0.06-0.05-0.11-0.1-0.17-0.16c-0.93-0.85-1.8-1.77-2.61-2.74  c-0.02-0.03-0.05-0.06-0.07-0.09c-0.23-0.28-0.46-0.57-0.68-0.87c-0.08-0.11-0.16-0.22-0.24-0.33c-0.12-0.16-0.24-0.33-0.35-0.49  C7.89,40.31,12.8,36,18.69,36h2.9L30,44.41L38.41,36h2.9c5.89,0,10.8,4.31,11.58,10.1C52.77,46.26,52.66,46.43,52.54,46.59z   M25.49,30.79C20.71,29.02,17,20.85,17,15c0-0.13,0.02-0.25,0.02-0.38l0.73-0.9c1.65-1.96,4.47-2.53,7.01-1.4  C25.79,12.77,26.87,13,28,13c2.97,0,5.64-1.62,7.03-4.18c3.18,1.04,6.02,3.01,7.94,5.5c0.29,6.1-3.29,14.53-8.4,16.45  C33.62,31.13,33,32,33,32.99v0.64c0,1.3,1.06,2.37,2.37,2.37h0.22L30,41.59L24.41,36h0.22c1.3,0,2.37-1.06,2.37-2.37V33  C27,32.01,26.39,31.13,25.49,30.79z M30.07,2C30.07,2,30.07,2,30.07,2c0.49,0,0.97,0.03,1.43,0.08c4.96,0.55,9.13,4,10.75,8.59  c-2.11-1.84-4.71-3.26-7.5-4.03L33.9,6.41l-0.33,0.83C32.64,9.52,30.46,11,28,11c-0.84,0-1.66-0.17-2.43-0.51  c-2.76-1.22-5.78-0.89-8.01,0.72C19.2,5.89,24.16,2,30.07,2z M20,3.85C16.94,6.6,15,10.57,15,15c0,6.63,4.19,15.59,9.8,17.67  C24.92,32.71,25,32.85,25,33v0.63c0,0.2-0.16,0.37-0.37,0.37h-5.05h-0.9c-6.15,0-11.39,4.02-13.1,9.69C3.31,39.64,2,34.97,2,30  C2,18.08,9.49,7.89,20,3.85z"></path></svg>